ISO-10303-21;
HEADER;
/* Generated by software containing ST-Developer
 * from STEP Tools, Inc. (www.steptools.com) 
 */
/* OPTION: using custom renumber hook */

FILE_DESCRIPTION(
/* description */ ('STEP AP242 Edition 2',
'CAx-IF Rec.Pracs.---Representation and Presentation of Product Manufa
cturing Information (PMI)---4.0---2014-10-13',
'CAx-IF Rec.Pracs.---3D Tessellated Geometry---0.4---2014-09-14','2;1',
'CAx-IF Rec.Pracs.---User Defined Attributes---1.5---2016-08-15'),
/* implementation_level */ '2;1');

FILE_NAME(
/* name */ 'Assembly 1 - Part 88',
/* time_stamp */ '2026-09-05T16:47:59Z',
/* author */ (''),
/* organization */ (''),
/* preprocessor_version */ 'ST-DEVELOPER v20',
/* originating_system */ 'ONSHAPE BY PTC INC, 1.220',
/* authorisation */ '  ');

FILE_SCHEMA (('AP242_MANAGED_MODEL_BASED_3D_ENGINEERING_MIM_LF { 1 0 10303 442 3 1 4 }'));
ENDSEC;

DATA;
#10=SHAPE_REPRESENTATION_RELATIONSHIP('','',#455,#11);
#11=ADVANCED_BREP_SHAPE_REPRESENTATION('',(#453),#763);
#12=PLANE('',#460);
#13=PLANE('',#464);
#14=PLANE('',#468);
#15=PLANE('',#475);
#16=PLANE('',#479);
#17=PLANE('',#483);
#18=PLANE('',#502);
#19=PLANE('',#503);
#20=PLANE('',#504);
#21=PLANE('',#505);
#22=LINE('',#643,#54);
#23=LINE('',#647,#55);
#24=LINE('',#649,#56);
#25=LINE('',#651,#57);
#26=LINE('',#653,#58);
#27=LINE('',#659,#59);
#28=LINE('',#661,#60);
#29=LINE('',#663,#61);
#30=LINE('',#665,#62);
#31=LINE('',#671,#63);
#32=LINE('',#673,#64);
#33=LINE('',#675,#65);
#34=LINE('',#677,#66);
#35=LINE('',#683,#67);
#36=LINE('',#688,#68);
#37=LINE('',#692,#69);
#38=LINE('',#694,#70);
#39=LINE('',#696,#71);
#40=LINE('',#698,#72);
#41=LINE('',#704,#73);
#42=LINE('',#706,#74);
#43=LINE('',#708,#75);
#44=LINE('',#710,#76);
#45=LINE('',#716,#77);
#46=LINE('',#718,#78);
#47=LINE('',#720,#79);
#48=LINE('',#722,#80);
#49=LINE('',#728,#81);
#50=LINE('',#755,#82);
#51=LINE('',#756,#83);
#52=LINE('',#758,#84);
#53=LINE('',#759,#85);
#54=VECTOR('',#512,1.);
#55=VECTOR('',#515,1.);
#56=VECTOR('',#518,1.);
#57=VECTOR('',#519,1.);
#58=VECTOR('',#520,1.);
#59=VECTOR('',#527,1.);
#60=VECTOR('',#530,1.);
#61=VECTOR('',#531,1.);
#62=VECTOR('',#532,1.);
#63=VECTOR('',#539,1.);
#64=VECTOR('',#542,1.);
#65=VECTOR('',#543,1.);
#66=VECTOR('',#544,1.);
#67=VECTOR('',#551,1.);
#68=VECTOR('',#556,1.);
#69=VECTOR('',#559,1.);
#70=VECTOR('',#562,1.);
#71=VECTOR('',#563,1.);
#72=VECTOR('',#564,1.);
#73=VECTOR('',#571,1.);
#74=VECTOR('',#574,1.);
#75=VECTOR('',#575,1.);
#76=VECTOR('',#576,1.);
#77=VECTOR('',#583,1.);
#78=VECTOR('',#586,1.);
#79=VECTOR('',#587,1.);
#80=VECTOR('',#588,1.);
#81=VECTOR('',#595,1.);
#82=VECTOR('',#628,1.);
#83=VECTOR('',#629,1.);
#84=VECTOR('',#632,1.);
#85=VECTOR('',#633,1.);
#86=ORIENTED_EDGE('',*,*,#202,.T.);
#87=ORIENTED_EDGE('',*,*,#203,.F.);
#88=ORIENTED_EDGE('',*,*,#204,.F.);
#89=ORIENTED_EDGE('',*,*,#205,.T.);
#90=ORIENTED_EDGE('',*,*,#206,.F.);
#91=ORIENTED_EDGE('',*,*,#205,.F.);
#92=ORIENTED_EDGE('',*,*,#207,.T.);
#93=ORIENTED_EDGE('',*,*,#208,.T.);
#94=ORIENTED_EDGE('',*,*,#209,.T.);
#95=ORIENTED_EDGE('',*,*,#208,.F.);
#96=ORIENTED_EDGE('',*,*,#210,.F.);
#97=ORIENTED_EDGE('',*,*,#211,.T.);
#98=ORIENTED_EDGE('',*,*,#212,.F.);
#99=ORIENTED_EDGE('',*,*,#211,.F.);
#100=ORIENTED_EDGE('',*,*,#213,.T.);
#101=ORIENTED_EDGE('',*,*,#214,.T.);
#102=ORIENTED_EDGE('',*,*,#215,.T.);
#103=ORIENTED_EDGE('',*,*,#214,.F.);
#104=ORIENTED_EDGE('',*,*,#216,.F.);
#105=ORIENTED_EDGE('',*,*,#217,.T.);
#106=ORIENTED_EDGE('',*,*,#218,.T.);
#107=ORIENTED_EDGE('',*,*,#217,.F.);
#108=ORIENTED_EDGE('',*,*,#219,.F.);
#109=ORIENTED_EDGE('',*,*,#220,.T.);
#110=ORIENTED_EDGE('',*,*,#221,.T.);
#111=ORIENTED_EDGE('',*,*,#220,.F.);
#112=ORIENTED_EDGE('',*,*,#222,.F.);
#113=ORIENTED_EDGE('',*,*,#223,.T.);
#114=ORIENTED_EDGE('',*,*,#224,.T.);
#115=ORIENTED_EDGE('',*,*,#225,.F.);
#116=ORIENTED_EDGE('',*,*,#226,.F.);
#117=ORIENTED_EDGE('',*,*,#227,.T.);
#118=ORIENTED_EDGE('',*,*,#228,.T.);
#119=ORIENTED_EDGE('',*,*,#227,.F.);
#120=ORIENTED_EDGE('',*,*,#229,.F.);
#121=ORIENTED_EDGE('',*,*,#230,.T.);
#122=ORIENTED_EDGE('',*,*,#231,.T.);
#123=ORIENTED_EDGE('',*,*,#230,.F.);
#124=ORIENTED_EDGE('',*,*,#232,.F.);
#125=ORIENTED_EDGE('',*,*,#233,.T.);
#126=ORIENTED_EDGE('',*,*,#234,.F.);
#127=ORIENTED_EDGE('',*,*,#233,.F.);
#128=ORIENTED_EDGE('',*,*,#235,.T.);
#129=ORIENTED_EDGE('',*,*,#236,.T.);
#130=ORIENTED_EDGE('',*,*,#237,.T.);
#131=ORIENTED_EDGE('',*,*,#236,.F.);
#132=ORIENTED_EDGE('',*,*,#238,.F.);
#133=ORIENTED_EDGE('',*,*,#239,.T.);
#134=ORIENTED_EDGE('',*,*,#240,.F.);
#135=ORIENTED_EDGE('',*,*,#239,.F.);
#136=ORIENTED_EDGE('',*,*,#241,.T.);
#137=ORIENTED_EDGE('',*,*,#242,.T.);
#138=ORIENTED_EDGE('',*,*,#243,.T.);
#139=ORIENTED_EDGE('',*,*,#242,.F.);
#140=ORIENTED_EDGE('',*,*,#244,.F.);
#141=ORIENTED_EDGE('',*,*,#245,.T.);
#142=ORIENTED_EDGE('',*,*,#246,.F.);
#143=ORIENTED_EDGE('',*,*,#247,.T.);
#144=ORIENTED_EDGE('',*,*,#248,.F.);
#145=ORIENTED_EDGE('',*,*,#249,.T.);
#146=ORIENTED_EDGE('',*,*,#250,.F.);
#147=ORIENTED_EDGE('',*,*,#251,.T.);
#148=ORIENTED_EDGE('',*,*,#252,.F.);
#149=ORIENTED_EDGE('',*,*,#253,.T.);
#150=ORIENTED_EDGE('',*,*,#254,.F.);
#151=ORIENTED_EDGE('',*,*,#255,.T.);
#152=ORIENTED_EDGE('',*,*,#256,.T.);
#153=ORIENTED_EDGE('',*,*,#245,.F.);
#154=ORIENTED_EDGE('',*,*,#257,.F.);
#155=ORIENTED_EDGE('',*,*,#225,.T.);
#156=ORIENTED_EDGE('',*,*,#258,.T.);
#157=ORIENTED_EDGE('',*,*,#223,.F.);
#158=ORIENTED_EDGE('',*,*,#259,.F.);
#159=ORIENTED_EDGE('',*,*,#203,.T.);
#160=ORIENTED_EDGE('',*,*,#226,.T.);
#161=ORIENTED_EDGE('',*,*,#257,.T.);
#162=ORIENTED_EDGE('',*,*,#244,.T.);
#163=ORIENTED_EDGE('',*,*,#241,.F.);
#164=ORIENTED_EDGE('',*,*,#238,.T.);
#165=ORIENTED_EDGE('',*,*,#235,.F.);
#166=ORIENTED_EDGE('',*,*,#232,.T.);
#167=ORIENTED_EDGE('',*,*,#229,.T.);
#168=ORIENTED_EDGE('',*,*,#254,.T.);
#169=ORIENTED_EDGE('',*,*,#252,.T.);
#170=ORIENTED_EDGE('',*,*,#250,.T.);
#171=ORIENTED_EDGE('',*,*,#248,.T.);
#172=ORIENTED_EDGE('',*,*,#246,.T.);
#173=ORIENTED_EDGE('',*,*,#204,.T.);
#174=ORIENTED_EDGE('',*,*,#259,.T.);
#175=ORIENTED_EDGE('',*,*,#222,.T.);
#176=ORIENTED_EDGE('',*,*,#219,.T.);
#177=ORIENTED_EDGE('',*,*,#216,.T.);
#178=ORIENTED_EDGE('',*,*,#213,.F.);
#179=ORIENTED_EDGE('',*,*,#210,.T.);
#180=ORIENTED_EDGE('',*,*,#207,.F.);
#181=ORIENTED_EDGE('',*,*,#224,.F.);
#182=ORIENTED_EDGE('',*,*,#228,.F.);
#183=ORIENTED_EDGE('',*,*,#231,.F.);
#184=ORIENTED_EDGE('',*,*,#234,.T.);
#185=ORIENTED_EDGE('',*,*,#237,.F.);
#186=ORIENTED_EDGE('',*,*,#240,.T.);
#187=ORIENTED_EDGE('',*,*,#243,.F.);
#188=ORIENTED_EDGE('',*,*,#256,.F.);
#189=ORIENTED_EDGE('',*,*,#255,.F.);
#190=ORIENTED_EDGE('',*,*,#253,.F.);
#191=ORIENTED_EDGE('',*,*,#251,.F.);
#192=ORIENTED_EDGE('',*,*,#249,.F.);
#193=ORIENTED_EDGE('',*,*,#247,.F.);
#194=ORIENTED_EDGE('',*,*,#202,.F.);
#195=ORIENTED_EDGE('',*,*,#206,.T.);
#196=ORIENTED_EDGE('',*,*,#209,.F.);
#197=ORIENTED_EDGE('',*,*,#212,.T.);
#198=ORIENTED_EDGE('',*,*,#215,.F.);
#199=ORIENTED_EDGE('',*,*,#218,.F.);
#200=ORIENTED_EDGE('',*,*,#221,.F.);
#201=ORIENTED_EDGE('',*,*,#258,.F.);
#202=EDGE_CURVE('',#260,#261,#302,.T.);
#203=EDGE_CURVE('',#262,#261,#22,.T.);
#204=EDGE_CURVE('',#263,#262,#303,.T.);
#205=EDGE_CURVE('',#263,#260,#23,.T.);
#206=EDGE_CURVE('',#260,#264,#24,.T.);
#207=EDGE_CURVE('',#263,#265,#25,.T.);
#208=EDGE_CURVE('',#265,#264,#26,.T.);
#209=EDGE_CURVE('',#266,#264,#304,.T.);
#210=EDGE_CURVE('',#267,#265,#305,.T.);
#211=EDGE_CURVE('',#267,#266,#27,.T.);
#212=EDGE_CURVE('',#266,#268,#28,.T.);
#213=EDGE_CURVE('',#267,#269,#29,.T.);
#214=EDGE_CURVE('',#269,#268,#30,.T.);
#215=EDGE_CURVE('',#270,#268,#306,.T.);
#216=EDGE_CURVE('',#271,#269,#307,.T.);
#217=EDGE_CURVE('',#271,#270,#31,.T.);
#218=EDGE_CURVE('',#272,#270,#32,.T.);
#219=EDGE_CURVE('',#273,#271,#33,.T.);
#220=EDGE_CURVE('',#273,#272,#34,.T.);
#221=EDGE_CURVE('',#274,#272,#308,.T.);
#222=EDGE_CURVE('',#275,#273,#309,.T.);
#223=EDGE_CURVE('',#275,#274,#35,.T.);
#224=EDGE_CURVE('',#276,#277,#310,.T.);
#225=EDGE_CURVE('',#278,#277,#36,.T.);
#226=EDGE_CURVE('',#279,#278,#311,.T.);
#227=EDGE_CURVE('',#279,#276,#37,.T.);
#228=EDGE_CURVE('',#280,#276,#38,.T.);
#229=EDGE_CURVE('',#281,#279,#39,.T.);
#230=EDGE_CURVE('',#281,#280,#40,.T.);
#231=EDGE_CURVE('',#282,#280,#312,.T.);
#232=EDGE_CURVE('',#283,#281,#313,.T.);
#233=EDGE_CURVE('',#283,#282,#41,.T.);
#234=EDGE_CURVE('',#282,#284,#42,.T.);
#235=EDGE_CURVE('',#283,#285,#43,.T.);
#236=EDGE_CURVE('',#285,#284,#44,.T.);
#237=EDGE_CURVE('',#286,#284,#314,.T.);
#238=EDGE_CURVE('',#287,#285,#315,.T.);
#239=EDGE_CURVE('',#287,#286,#45,.T.);
#240=EDGE_CURVE('',#286,#288,#46,.T.);
#241=EDGE_CURVE('',#287,#289,#47,.T.);
#242=EDGE_CURVE('',#289,#288,#48,.T.);
#243=EDGE_CURVE('',#290,#288,#316,.T.);
#244=EDGE_CURVE('',#291,#289,#317,.T.);
#245=EDGE_CURVE('',#291,#290,#49,.T.);
#246=EDGE_CURVE('',#292,#292,#318,.T.);
#247=EDGE_CURVE('',#293,#293,#319,.T.);
#248=EDGE_CURVE('',#294,#294,#320,.T.);
#249=EDGE_CURVE('',#295,#295,#321,.T.);
#250=EDGE_CURVE('',#296,#296,#322,.T.);
#251=EDGE_CURVE('',#297,#297,#323,.T.);
#252=EDGE_CURVE('',#298,#298,#324,.T.);
#253=EDGE_CURVE('',#299,#299,#325,.T.);
#254=EDGE_CURVE('',#300,#300,#326,.T.);
#255=EDGE_CURVE('',#301,#301,#327,.T.);
#256=EDGE_CURVE('',#277,#290,#50,.T.);
#257=EDGE_CURVE('',#278,#291,#51,.T.);
#258=EDGE_CURVE('',#261,#274,#52,.T.);
#259=EDGE_CURVE('',#262,#275,#53,.T.);
#260=VERTEX_POINT('',#641);
#261=VERTEX_POINT('',#642);
#262=VERTEX_POINT('',#644);
#263=VERTEX_POINT('',#646);
#264=VERTEX_POINT('',#650);
#265=VERTEX_POINT('',#652);
#266=VERTEX_POINT('',#656);
#267=VERTEX_POINT('',#658);
#268=VERTEX_POINT('',#662);
#269=VERTEX_POINT('',#664);
#270=VERTEX_POINT('',#668);
#271=VERTEX_POINT('',#670);
#272=VERTEX_POINT('',#674);
#273=VERTEX_POINT('',#676);
#274=VERTEX_POINT('',#680);
#275=VERTEX_POINT('',#682);
#276=VERTEX_POINT('',#686);
#277=VERTEX_POINT('',#687);
#278=VERTEX_POINT('',#689);
#279=VERTEX_POINT('',#691);
#280=VERTEX_POINT('',#695);
#281=VERTEX_POINT('',#697);
#282=VERTEX_POINT('',#701);
#283=VERTEX_POINT('',#703);
#284=VERTEX_POINT('',#707);
#285=VERTEX_POINT('',#709);
#286=VERTEX_POINT('',#713);
#287=VERTEX_POINT('',#715);
#288=VERTEX_POINT('',#719);
#289=VERTEX_POINT('',#721);
#290=VERTEX_POINT('',#725);
#291=VERTEX_POINT('',#727);
#292=VERTEX_POINT('',#731);
#293=VERTEX_POINT('',#733);
#294=VERTEX_POINT('',#736);
#295=VERTEX_POINT('',#738);
#296=VERTEX_POINT('',#741);
#297=VERTEX_POINT('',#743);
#298=VERTEX_POINT('',#746);
#299=VERTEX_POINT('',#748);
#300=VERTEX_POINT('',#751);
#301=VERTEX_POINT('',#753);
#302=CIRCLE('',#458,0.004);
#303=CIRCLE('',#459,0.004);
#304=CIRCLE('',#462,0.00399999999999995);
#305=CIRCLE('',#463,0.00399999999999995);
#306=CIRCLE('',#466,0.004);
#307=CIRCLE('',#467,0.004);
#308=CIRCLE('',#470,0.004);
#309=CIRCLE('',#471,0.004);
#310=CIRCLE('',#473,0.003138477631085);
#311=CIRCLE('',#474,0.003138477631085);
#312=CIRCLE('',#477,0.003138477631085);
#313=CIRCLE('',#478,0.003138477631085);
#314=CIRCLE('',#481,0.00313847763108504);
#315=CIRCLE('',#482,0.00313847763108504);
#316=CIRCLE('',#485,0.00313847763108503);
#317=CIRCLE('',#486,0.00313847763108503);
#318=CIRCLE('',#488,0.0063207342923815);
#319=CIRCLE('',#489,0.0063207342923815);
#320=CIRCLE('',#491,0.00216023699186426);
#321=CIRCLE('',#492,0.00216023699186426);
#322=CIRCLE('',#494,0.00205419447767366);
#323=CIRCLE('',#495,0.00205419447767366);
#324=CIRCLE('',#497,0.00205331493092965);
#325=CIRCLE('',#498,0.00205331493092965);
#326=CIRCLE('',#500,0.00204741390848235);
#327=CIRCLE('',#501,0.00204741390848235);
#328=EDGE_LOOP('',(#86,#87,#88,#89));
#329=EDGE_LOOP('',(#90,#91,#92,#93));
#330=EDGE_LOOP('',(#94,#95,#96,#97));
#331=EDGE_LOOP('',(#98,#99,#100,#101));
#332=EDGE_LOOP('',(#102,#103,#104,#105));
#333=EDGE_LOOP('',(#106,#107,#108,#109));
#334=EDGE_LOOP('',(#110,#111,#112,#113));
#335=EDGE_LOOP('',(#114,#115,#116,#117));
#336=EDGE_LOOP('',(#118,#119,#120,#121));
#337=EDGE_LOOP('',(#122,#123,#124,#125));
#338=EDGE_LOOP('',(#126,#127,#128,#129));
#339=EDGE_LOOP('',(#130,#131,#132,#133));
#340=EDGE_LOOP('',(#134,#135,#136,#137));
#341=EDGE_LOOP('',(#138,#139,#140,#141));
#342=EDGE_LOOP('',(#142));
#343=EDGE_LOOP('',(#143));
#344=EDGE_LOOP('',(#144));
#345=EDGE_LOOP('',(#145));
#346=EDGE_LOOP('',(#146));
#347=EDGE_LOOP('',(#147));
#348=EDGE_LOOP('',(#148));
#349=EDGE_LOOP('',(#149));
#350=EDGE_LOOP('',(#150));
#351=EDGE_LOOP('',(#151));
#352=EDGE_LOOP('',(#152,#153,#154,#155));
#353=EDGE_LOOP('',(#156,#157,#158,#159));
#354=EDGE_LOOP('',(#160,#161,#162,#163,#164,#165,#166,#167));
#355=EDGE_LOOP('',(#168));
#356=EDGE_LOOP('',(#169));
#357=EDGE_LOOP('',(#170));
#358=EDGE_LOOP('',(#171));
#359=EDGE_LOOP('',(#172));
#360=EDGE_LOOP('',(#173,#174,#175,#176,#177,#178,#179,#180));
#361=EDGE_LOOP('',(#181,#182,#183,#184,#185,#186,#187,#188));
#362=EDGE_LOOP('',(#189));
#363=EDGE_LOOP('',(#190));
#364=EDGE_LOOP('',(#191));
#365=EDGE_LOOP('',(#192));
#366=EDGE_LOOP('',(#193));
#367=EDGE_LOOP('',(#194,#195,#196,#197,#198,#199,#200,#201));
#368=FACE_BOUND('',#328,.T.);
#369=FACE_BOUND('',#329,.T.);
#370=FACE_BOUND('',#330,.T.);
#371=FACE_BOUND('',#331,.T.);
#372=FACE_BOUND('',#332,.T.);
#373=FACE_BOUND('',#333,.T.);
#374=FACE_BOUND('',#334,.T.);
#375=FACE_BOUND('',#335,.T.);
#376=FACE_BOUND('',#336,.T.);
#377=FACE_BOUND('',#337,.T.);
#378=FACE_BOUND('',#338,.T.);
#379=FACE_BOUND('',#339,.T.);
#380=FACE_BOUND('',#340,.T.);
#381=FACE_BOUND('',#341,.T.);
#382=FACE_BOUND('',#342,.T.);
#383=FACE_BOUND('',#343,.T.);
#384=FACE_BOUND('',#344,.T.);
#385=FACE_BOUND('',#345,.T.);
#386=FACE_BOUND('',#346,.T.);
#387=FACE_BOUND('',#347,.T.);
#388=FACE_BOUND('',#348,.T.);
#389=FACE_BOUND('',#349,.T.);
#390=FACE_BOUND('',#350,.T.);
#391=FACE_BOUND('',#351,.T.);
#392=FACE_BOUND('',#352,.T.);
#393=FACE_BOUND('',#353,.T.);
#394=FACE_BOUND('',#354,.T.);
#395=FACE_BOUND('',#355,.T.);
#396=FACE_BOUND('',#356,.T.);
#397=FACE_BOUND('',#357,.T.);
#398=FACE_BOUND('',#358,.T.);
#399=FACE_BOUND('',#359,.T.);
#400=FACE_BOUND('',#360,.T.);
#401=FACE_BOUND('',#361,.T.);
#402=FACE_BOUND('',#362,.T.);
#403=FACE_BOUND('',#363,.T.);
#404=FACE_BOUND('',#364,.T.);
#405=FACE_BOUND('',#365,.T.);
#406=FACE_BOUND('',#366,.T.);
#407=FACE_BOUND('',#367,.T.);
#408=CYLINDRICAL_SURFACE('',#457,0.004);
#409=CYLINDRICAL_SURFACE('',#461,0.00399999999999995);
#410=CYLINDRICAL_SURFACE('',#465,0.004);
#411=CYLINDRICAL_SURFACE('',#469,0.004);
#412=CYLINDRICAL_SURFACE('',#472,0.003138477631085);
#413=CYLINDRICAL_SURFACE('',#476,0.003138477631085);
#414=CYLINDRICAL_SURFACE('',#480,0.00313847763108504);
#415=CYLINDRICAL_SURFACE('',#484,0.00313847763108503);
#416=CYLINDRICAL_SURFACE('',#487,0.0063207342923815);
#417=CYLINDRICAL_SURFACE('',#490,0.00216023699186426);
#418=CYLINDRICAL_SURFACE('',#493,0.00205419447767366);
#419=CYLINDRICAL_SURFACE('',#496,0.00205331493092965);
#420=CYLINDRICAL_SURFACE('',#499,0.00204741390848235);
#421=ADVANCED_FACE('',(#368),#408,.T.);
#422=ADVANCED_FACE('',(#369),#12,.T.);
#423=ADVANCED_FACE('',(#370),#409,.T.);
#424=ADVANCED_FACE('',(#371),#13,.T.);
#425=ADVANCED_FACE('',(#372),#410,.T.);
#426=ADVANCED_FACE('',(#373),#14,.F.);
#427=ADVANCED_FACE('',(#374),#411,.T.);
#428=ADVANCED_FACE('',(#375),#412,.F.);
#429=ADVANCED_FACE('',(#376),#15,.F.);
#430=ADVANCED_FACE('',(#377),#413,.F.);
#431=ADVANCED_FACE('',(#378),#16,.T.);
#432=ADVANCED_FACE('',(#379),#414,.F.);
#433=ADVANCED_FACE('',(#380),#17,.T.);
#434=ADVANCED_FACE('',(#381),#415,.F.);
#435=ADVANCED_FACE('',(#382,#383),#416,.F.);
#436=ADVANCED_FACE('',(#384,#385),#417,.F.);
#437=ADVANCED_FACE('',(#386,#387),#418,.F.);
#438=ADVANCED_FACE('',(#388,#389),#419,.F.);
#439=ADVANCED_FACE('',(#390,#391),#420,.F.);
#440=ADVANCED_FACE('',(#392),#18,.F.);
#441=ADVANCED_FACE('',(#393),#19,.F.);
#442=ADVANCED_FACE('',(#394,#395,#396,#397,#398,#399,#400),#20,.F.);
#443=ADVANCED_FACE('',(#401,#402,#403,#404,#405,#406,#407),#21,.T.);
#444=CLOSED_SHELL('',(#421,#422,#423,#424,#425,#426,#427,#428,#429,#430,
#431,#432,#433,#434,#435,#436,#437,#438,#439,#440,#441,#442,#443));
#445=STYLED_ITEM('',(#446),#453);
#446=PRESENTATION_STYLE_ASSIGNMENT((#447));
#447=SURFACE_STYLE_USAGE(.BOTH.,#448);
#448=SURFACE_SIDE_STYLE('',(#449));
#449=SURFACE_STYLE_FILL_AREA(#450);
#450=FILL_AREA_STYLE('',(#451));
#451=FILL_AREA_STYLE_COLOUR('',#452);
#452=COLOUR_RGB('',0.917647058823529,0.917647058823529,0.917647058823529);
#453=MANIFOLD_SOLID_BREP('Part 88',#444);
#454=SHAPE_DEFINITION_REPRESENTATION(#768,#455);
#455=SHAPE_REPRESENTATION('Part 88',(#456),#763);
#456=AXIS2_PLACEMENT_3D('',#638,#506,#507);
#457=AXIS2_PLACEMENT_3D('',#639,#508,#509);
#458=AXIS2_PLACEMENT_3D('',#640,#510,#511);
#459=AXIS2_PLACEMENT_3D('',#645,#513,#514);
#460=AXIS2_PLACEMENT_3D('',#648,#516,#517);
#461=AXIS2_PLACEMENT_3D('',#654,#521,#522);
#462=AXIS2_PLACEMENT_3D('',#655,#523,#524);
#463=AXIS2_PLACEMENT_3D('',#657,#525,#526);
#464=AXIS2_PLACEMENT_3D('',#660,#528,#529);
#465=AXIS2_PLACEMENT_3D('',#666,#533,#534);
#466=AXIS2_PLACEMENT_3D('',#667,#535,#536);
#467=AXIS2_PLACEMENT_3D('',#669,#537,#538);
#468=AXIS2_PLACEMENT_3D('',#672,#540,#541);
#469=AXIS2_PLACEMENT_3D('',#678,#545,#546);
#470=AXIS2_PLACEMENT_3D('',#679,#547,#548);
#471=AXIS2_PLACEMENT_3D('',#681,#549,#550);
#472=AXIS2_PLACEMENT_3D('',#684,#552,#553);
#473=AXIS2_PLACEMENT_3D('',#685,#554,#555);
#474=AXIS2_PLACEMENT_3D('',#690,#557,#558);
#475=AXIS2_PLACEMENT_3D('',#693,#560,#561);
#476=AXIS2_PLACEMENT_3D('',#699,#565,#566);
#477=AXIS2_PLACEMENT_3D('',#700,#567,#568);
#478=AXIS2_PLACEMENT_3D('',#702,#569,#570);
#479=AXIS2_PLACEMENT_3D('',#705,#572,#573);
#480=AXIS2_PLACEMENT_3D('',#711,#577,#578);
#481=AXIS2_PLACEMENT_3D('',#712,#579,#580);
#482=AXIS2_PLACEMENT_3D('',#714,#581,#582);
#483=AXIS2_PLACEMENT_3D('',#717,#584,#585);
#484=AXIS2_PLACEMENT_3D('',#723,#589,#590);
#485=AXIS2_PLACEMENT_3D('',#724,#591,#592);
#486=AXIS2_PLACEMENT_3D('',#726,#593,#594);
#487=AXIS2_PLACEMENT_3D('',#729,#596,#597);
#488=AXIS2_PLACEMENT_3D('',#730,#598,#599);
#489=AXIS2_PLACEMENT_3D('',#732,#600,#601);
#490=AXIS2_PLACEMENT_3D('',#734,#602,#603);
#491=AXIS2_PLACEMENT_3D('',#735,#604,#605);
#492=AXIS2_PLACEMENT_3D('',#737,#606,#607);
#493=AXIS2_PLACEMENT_3D('',#739,#608,#609);
#494=AXIS2_PLACEMENT_3D('',#740,#610,#611);
#495=AXIS2_PLACEMENT_3D('',#742,#612,#613);
#496=AXIS2_PLACEMENT_3D('',#744,#614,#615);
#497=AXIS2_PLACEMENT_3D('',#745,#616,#617);
#498=AXIS2_PLACEMENT_3D('',#747,#618,#619);
#499=AXIS2_PLACEMENT_3D('',#749,#620,#621);
#500=AXIS2_PLACEMENT_3D('',#750,#622,#623);
#501=AXIS2_PLACEMENT_3D('',#752,#624,#625);
#502=AXIS2_PLACEMENT_3D('',#754,#626,#627);
#503=AXIS2_PLACEMENT_3D('',#757,#630,#631);
#504=AXIS2_PLACEMENT_3D('',#760,#634,#635);
#505=AXIS2_PLACEMENT_3D('',#761,#636,#637);
#506=DIRECTION('',(0.,0.,1.));
#507=DIRECTION('',(1.,0.,0.));
#508=DIRECTION('',(0.,1.,0.));
#509=DIRECTION('',(1.,0.,0.));
#510=DIRECTION('',(0.,-1.,0.));
#511=DIRECTION('',(-1.,0.,0.));
#512=DIRECTION('',(0.,1.,0.));
#513=DIRECTION('',(0.,-1.,0.));
#514=DIRECTION('',(-1.,0.,0.));
#515=DIRECTION('',(0.,1.,0.));
#516=DIRECTION('',(0.,0.,1.));
#517=DIRECTION('',(0.,-1.,0.));
#518=DIRECTION('',(1.,0.,0.));
#519=DIRECTION('',(1.,0.,0.));
#520=DIRECTION('',(0.,1.,0.));
#521=DIRECTION('',(0.,1.,0.));
#522=DIRECTION('',(1.,0.,0.));
#523=DIRECTION('',(0.,-1.,0.));
#524=DIRECTION('',(-1.,0.,0.));
#525=DIRECTION('',(0.,-1.,0.));
#526=DIRECTION('',(-1.,0.,0.));
#527=DIRECTION('',(0.,1.,0.));
#528=DIRECTION('',(1.,0.,0.));
#529=DIRECTION('',(0.,-1.,0.));
#530=DIRECTION('',(0.,0.,-1.));
#531=DIRECTION('',(0.,0.,-1.));
#532=DIRECTION('',(0.,1.,0.));
#533=DIRECTION('',(0.,1.,0.));
#534=DIRECTION('',(1.,0.,0.));
#535=DIRECTION('',(0.,-1.,0.));
#536=DIRECTION('',(-1.,0.,0.));
#537=DIRECTION('',(0.,-1.,0.));
#538=DIRECTION('',(-1.,0.,0.));
#539=DIRECTION('',(0.,1.,0.));
#540=DIRECTION('',(0.,0.,1.));
#541=DIRECTION('',(0.,-1.,0.));
#542=DIRECTION('',(1.,0.,0.));
#543=DIRECTION('',(1.,0.,0.));
#544=DIRECTION('',(0.,1.,0.));
#545=DIRECTION('',(0.,1.,0.));
#546=DIRECTION('',(1.,0.,0.));
#547=DIRECTION('',(0.,-1.,0.));
#548=DIRECTION('',(-1.,0.,0.));
#549=DIRECTION('',(0.,-1.,0.));
#550=DIRECTION('',(-1.,0.,0.));
#551=DIRECTION('',(0.,1.,0.));
#552=DIRECTION('',(0.,1.,0.));
#553=DIRECTION('',(1.,0.,0.));
#554=DIRECTION('',(0.,1.,0.));
#555=DIRECTION('',(1.,0.,0.));
#556=DIRECTION('',(0.,1.,0.));
#557=DIRECTION('',(0.,1.,0.));
#558=DIRECTION('',(1.,0.,0.));
#559=DIRECTION('',(0.,1.,0.));
#560=DIRECTION('',(-1.,0.,0.));
#561=DIRECTION('',(0.,1.,0.));
#562=DIRECTION('',(0.,0.,1.));
#563=DIRECTION('',(0.,0.,1.));
#564=DIRECTION('',(0.,1.,0.));
#565=DIRECTION('',(0.,1.,0.));
#566=DIRECTION('',(1.,0.,0.));
#567=DIRECTION('',(0.,1.,0.));
#568=DIRECTION('',(1.,0.,0.));
#569=DIRECTION('',(0.,1.,0.));
#570=DIRECTION('',(1.,0.,0.));
#571=DIRECTION('',(0.,1.,0.));
#572=DIRECTION('',(0.,0.,1.));
#573=DIRECTION('',(0.,-1.,0.));
#574=DIRECTION('',(1.,0.,0.));
#575=DIRECTION('',(1.,0.,0.));
#576=DIRECTION('',(0.,1.,0.));
#577=DIRECTION('',(0.,1.,0.));
#578=DIRECTION('',(1.,0.,0.));
#579=DIRECTION('',(0.,1.,0.));
#580=DIRECTION('',(1.,0.,0.));
#581=DIRECTION('',(0.,1.,0.));
#582=DIRECTION('',(1.,0.,0.));
#583=DIRECTION('',(0.,1.,0.));
#584=DIRECTION('',(-1.,0.,0.));
#585=DIRECTION('',(0.,1.,0.));
#586=DIRECTION('',(0.,0.,1.));
#587=DIRECTION('',(0.,0.,1.));
#588=DIRECTION('',(0.,1.,0.));
#589=DIRECTION('',(0.,1.,0.));
#590=DIRECTION('',(1.,0.,0.));
#591=DIRECTION('',(0.,1.,0.));
#592=DIRECTION('',(1.,0.,0.));
#593=DIRECTION('',(0.,1.,0.));
#594=DIRECTION('',(1.,0.,0.));
#595=DIRECTION('',(0.,1.,0.));
#596=DIRECTION('',(0.,1.,0.));
#597=DIRECTION('',(1.,0.,0.));
#598=DIRECTION('',(0.,1.,0.));
#599=DIRECTION('',(1.,0.,0.));
#600=DIRECTION('',(0.,1.,0.));
#601=DIRECTION('',(1.,0.,0.));
#602=DIRECTION('',(0.,1.,0.));
#603=DIRECTION('',(1.,0.,0.));
#604=DIRECTION('',(0.,1.,0.));
#605=DIRECTION('',(1.,0.,0.));
#606=DIRECTION('',(0.,1.,0.));
#607=DIRECTION('',(1.,0.,0.));
#608=DIRECTION('',(0.,1.,0.));
#609=DIRECTION('',(1.,0.,0.));
#610=DIRECTION('',(0.,1.,0.));
#611=DIRECTION('',(1.,0.,0.));
#612=DIRECTION('',(0.,1.,0.));
#613=DIRECTION('',(1.,0.,0.));
#614=DIRECTION('',(0.,1.,0.));
#615=DIRECTION('',(1.,0.,0.));
#616=DIRECTION('',(0.,1.,0.));
#617=DIRECTION('',(1.,0.,0.));
#618=DIRECTION('',(0.,1.,0.));
#619=DIRECTION('',(1.,0.,0.));
#620=DIRECTION('',(0.,1.,0.));
#621=DIRECTION('',(1.,0.,0.));
#622=DIRECTION('',(0.,1.,0.));
#623=DIRECTION('',(1.,0.,0.));
#624=DIRECTION('',(0.,1.,0.));
#625=DIRECTION('',(1.,0.,0.));
#626=DIRECTION('',(0.,0.,1.));
#627=DIRECTION('',(0.,-1.,0.));
#628=DIRECTION('',(1.,0.,0.));
#629=DIRECTION('',(1.,0.,0.));
#630=DIRECTION('',(1.,0.,0.));
#631=DIRECTION('',(0.,-1.,0.));
#632=DIRECTION('',(0.,0.,-1.));
#633=DIRECTION('',(0.,0.,-1.));
#634=DIRECTION('',(0.,1.,0.));
#635=DIRECTION('',(1.,0.,0.));
#636=DIRECTION('',(0.,1.,0.));
#637=DIRECTION('',(1.,0.,0.));
#638=CARTESIAN_POINT('',(0.,0.,0.));
#639=CARTESIAN_POINT('',(0.112229694724083,0.0055,0.0981803712248802));
#640=CARTESIAN_POINT('',(0.112229694724083,0.0097,0.0981803712248802));
#641=CARTESIAN_POINT('',(0.112229694724083,0.0097,0.10218037122488));
#642=CARTESIAN_POINT('',(0.108229694724083,0.0097,0.0981803712248802));
#643=CARTESIAN_POINT('',(0.108229694724083,0.0055,0.0981803712248802));
#644=CARTESIAN_POINT('',(0.108229694724083,0.0055,0.0981803712248802));
#645=CARTESIAN_POINT('',(0.112229694724083,0.0055,0.0981803712248802));
#646=CARTESIAN_POINT('',(0.112229694724083,0.0055,0.10218037122488));
#647=CARTESIAN_POINT('',(0.112229694724083,0.0055,0.10218037122488));
#648=CARTESIAN_POINT('',(0.144522182643413,0.0055,0.10218037122488));
#649=CARTESIAN_POINT('',(0.144522182643413,0.0097,0.10218037122488));
#650=CARTESIAN_POINT('',(0.176814670562744,0.0097,0.10218037122488));
#651=CARTESIAN_POINT('',(0.144522182643413,0.0055,0.10218037122488));
#652=CARTESIAN_POINT('',(0.176814670562744,0.0055,0.10218037122488));
#653=CARTESIAN_POINT('',(0.176814670562744,0.0055,0.10218037122488));
#654=CARTESIAN_POINT('',(0.176814670562744,0.0055,0.0981803712248803));
#655=CARTESIAN_POINT('',(0.176814670562744,0.0097,0.0981803712248803));
#656=CARTESIAN_POINT('',(0.180814670562744,0.0097,0.0981803712248802));
#657=CARTESIAN_POINT('',(0.176814670562744,0.0055,0.0981803712248803));
#658=CARTESIAN_POINT('',(0.180814670562744,0.0055,0.0981803712248802));
#659=CARTESIAN_POINT('',(0.180814670562744,0.0055,0.0981803712248802));
#660=CARTESIAN_POINT('',(0.180814670562744,0.0055,0.0718284286558628));
#661=CARTESIAN_POINT('',(0.180814670562744,0.0097,0.0718284286558628));
#662=CARTESIAN_POINT('',(0.180814670562744,0.0097,0.0454764860868454));
#663=CARTESIAN_POINT('',(0.180814670562744,0.0055,0.0718284286558628));
#664=CARTESIAN_POINT('',(0.180814670562744,0.0055,0.0454764860868454));
#665=CARTESIAN_POINT('',(0.180814670562744,0.0055,0.0454764860868454));
#666=CARTESIAN_POINT('',(0.176814670562744,0.0055,0.0454764860868454));
#667=CARTESIAN_POINT('',(0.176814670562744,0.0097,0.0454764860868454));
#668=CARTESIAN_POINT('',(0.176814670562744,0.0097,0.0414764860868454));
#669=CARTESIAN_POINT('',(0.176814670562744,0.0055,0.0454764860868454));
#670=CARTESIAN_POINT('',(0.176814670562744,0.0055,0.0414764860868454));
#671=CARTESIAN_POINT('',(0.176814670562744,0.0055,0.0414764860868454));
#672=CARTESIAN_POINT('',(0.144522182643413,0.0055,0.0414764860868454));
#673=CARTESIAN_POINT('',(0.144522182643413,0.0097,0.0414764860868454));
#674=CARTESIAN_POINT('',(0.112229694724083,0.0097,0.0414764860868454));
#675=CARTESIAN_POINT('',(0.144522182643413,0.0055,0.0414764860868454));
#676=CARTESIAN_POINT('',(0.112229694724083,0.0055,0.0414764860868454));
#677=CARTESIAN_POINT('',(0.112229694724083,0.0055,0.0414764860868454));
#678=CARTESIAN_POINT('',(0.112229694724083,0.0055,0.0454764860868454));
#679=CARTESIAN_POINT('',(0.112229694724083,0.0097,0.0454764860868454));
#680=CARTESIAN_POINT('',(0.108229694724083,0.0097,0.0454764860868454));
#681=CARTESIAN_POINT('',(0.112229694724083,0.0055,0.0454764860868454));
#682=CARTESIAN_POINT('',(0.108229694724083,0.0055,0.0454764860868454));
#683=CARTESIAN_POINT('',(0.108229694724083,0.0055,0.0454764860868454));
#684=CARTESIAN_POINT('',(0.116935091741555,0.0055,0.0826246713323664));
#685=CARTESIAN_POINT('',(0.116935091741555,0.0097,0.0826246713323664));
#686=CARTESIAN_POINT('',(0.11379661411047,0.0097,0.0826246713323664));
#687=CARTESIAN_POINT('',(0.116935091741555,0.0097,0.0857631489634514));
#688=CARTESIAN_POINT('',(0.116935091741555,0.0055,0.0857631489634514));
#689=CARTESIAN_POINT('',(0.116935091741555,0.0055,0.0857631489634514));
#690=CARTESIAN_POINT('',(0.116935091741555,0.0055,0.0826246713323664));
#691=CARTESIAN_POINT('',(0.11379661411047,0.0055,0.0826246713323664));
#692=CARTESIAN_POINT('',(0.11379661411047,0.0055,0.0826246713323664));
#693=CARTESIAN_POINT('',(0.11379661411047,0.0055,0.0752632170915604));
#694=CARTESIAN_POINT('',(0.11379661411047,0.0097,0.0752632170915604));
#695=CARTESIAN_POINT('',(0.11379661411047,0.0097,0.0679017628507544));
#696=CARTESIAN_POINT('',(0.11379661411047,0.0055,0.0752632170915604));
#697=CARTESIAN_POINT('',(0.11379661411047,0.0055,0.0679017628507544));
#698=CARTESIAN_POINT('',(0.11379661411047,0.0055,0.0679017628507544));
#699=CARTESIAN_POINT('',(0.116935091741555,0.0055,0.0679017628507543));
#700=CARTESIAN_POINT('',(0.116935091741555,0.0097,0.0679017628507543));
#701=CARTESIAN_POINT('',(0.116935091741555,0.0097,0.0647632852196693));
#702=CARTESIAN_POINT('',(0.116935091741555,0.0055,0.0679017628507543));
#703=CARTESIAN_POINT('',(0.116935091741555,0.0055,0.0647632852196693));
#704=CARTESIAN_POINT('',(0.116935091741555,0.0055,0.0647632852196693));
#705=CARTESIAN_POINT('',(0.135214086622,0.0055,0.0647632852196693));
#706=CARTESIAN_POINT('',(0.135214086622,0.0097,0.0647632852196693));
#707=CARTESIAN_POINT('',(0.153493081502444,0.0097,0.0647632852196693));
#708=CARTESIAN_POINT('',(0.135214086622,0.0055,0.0647632852196693));
#709=CARTESIAN_POINT('',(0.153493081502444,0.0055,0.0647632852196693));
#710=CARTESIAN_POINT('',(0.153493081502444,0.0055,0.0647632852196693));
#711=CARTESIAN_POINT('',(0.153493081502444,0.0055,0.0679017628507544));
#712=CARTESIAN_POINT('',(0.153493081502444,0.0097,0.0679017628507544));
#713=CARTESIAN_POINT('',(0.15663155913353,0.0097,0.0679017628507544));
#714=CARTESIAN_POINT('',(0.153493081502444,0.0055,0.0679017628507544));
#715=CARTESIAN_POINT('',(0.15663155913353,0.0055,0.0679017628507544));
#716=CARTESIAN_POINT('',(0.15663155913353,0.0055,0.0679017628507544));
#717=CARTESIAN_POINT('',(0.15663155913353,0.0055,0.0752632170915604));
#718=CARTESIAN_POINT('',(0.15663155913353,0.0097,0.0752632170915604));
#719=CARTESIAN_POINT('',(0.15663155913353,0.0097,0.0826246713323664));
#720=CARTESIAN_POINT('',(0.15663155913353,0.0055,0.0752632170915604));
#721=CARTESIAN_POINT('',(0.15663155913353,0.0055,0.0826246713323664));
#722=CARTESIAN_POINT('',(0.15663155913353,0.0055,0.0826246713323664));
#723=CARTESIAN_POINT('',(0.153493081502444,0.0055,0.0826246713323664));
#724=CARTESIAN_POINT('',(0.153493081502444,0.0097,0.0826246713323664));
#725=CARTESIAN_POINT('',(0.153493081502444,0.0097,0.0857631489634514));
#726=CARTESIAN_POINT('',(0.153493081502444,0.0055,0.0826246713323664));
#727=CARTESIAN_POINT('',(0.153493081502444,0.0055,0.0857631489634514));
#728=CARTESIAN_POINT('',(0.153493081502444,0.0055,0.0857631489634514));
#729=CARTESIAN_POINT('',(0.165341734886169,0.0055,0.0763370767235756));
#730=CARTESIAN_POINT('',(0.165341734886169,0.0055,0.0763370767235756));
#731=CARTESIAN_POINT('',(0.171662469178551,0.0055,0.0763370767235756));
#732=CARTESIAN_POINT('',(0.165341734886169,0.0097,0.0763370767235756));
#733=CARTESIAN_POINT('',(0.171662469178551,0.0097,0.0763370767235756));
#734=CARTESIAN_POINT('',(0.174871876835823,0.0055,0.0475324615836144));
#735=CARTESIAN_POINT('',(0.174871876835823,0.0055,0.0475324615836144));
#736=CARTESIAN_POINT('',(0.177032113827687,0.0055,0.0475324615836144));
#737=CARTESIAN_POINT('',(0.174871876835823,0.0097,0.0475324615836144));
#738=CARTESIAN_POINT('',(0.177032113827687,0.0097,0.0475324615836144));
#739=CARTESIAN_POINT('',(0.17395943403244,0.0055,0.0895208492875099));
#740=CARTESIAN_POINT('',(0.17395943403244,0.0055,0.0895208492875099));
#741=CARTESIAN_POINT('',(0.176013628510114,0.0055,0.0895208492875099));
#742=CARTESIAN_POINT('',(0.17395943403244,0.0097,0.0895208492875099));
#743=CARTESIAN_POINT('',(0.176013628510114,0.0097,0.0895208492875099));
#744=CARTESIAN_POINT('',(0.115444980561733,0.0055,0.0895144119858742));
#745=CARTESIAN_POINT('',(0.115444980561733,0.0055,0.0895144119858742));
#746=CARTESIAN_POINT('',(0.117498295492663,0.0055,0.0895144119858742));
#747=CARTESIAN_POINT('',(0.115444980561733,0.0097,0.0895144119858742));
#748=CARTESIAN_POINT('',(0.117498295492663,0.0097,0.0895144119858742));
#749=CARTESIAN_POINT('',(0.114961557090282,0.0055,0.0474446602165699));
#750=CARTESIAN_POINT('',(0.114961557090282,0.0055,0.0474446602165699));
#751=CARTESIAN_POINT('',(0.117008970998765,0.0055,0.0474446602165699));
#752=CARTESIAN_POINT('',(0.114961557090282,0.0097,0.0474446602165699));
#753=CARTESIAN_POINT('',(0.117008970998765,0.0097,0.0474446602165699));
#754=CARTESIAN_POINT('',(0.135214086622,0.0055,0.0857631489634514));
#755=CARTESIAN_POINT('',(0.135214086622,0.0097,0.0857631489634514));
#756=CARTESIAN_POINT('',(0.135214086622,0.0055,0.0857631489634514));
#757=CARTESIAN_POINT('',(0.108229694724083,0.0055,0.0718284286558628));
#758=CARTESIAN_POINT('',(0.108229694724083,0.0097,0.0718284286558628));
#759=CARTESIAN_POINT('',(0.108229694724083,0.0055,0.0718284286558628));
#760=CARTESIAN_POINT('',(0.144522182643413,0.0055,0.0718284286558628));
#761=CARTESIAN_POINT('',(0.144522182643413,0.0097,0.0718284286558628));
#762=MECHANICAL_DESIGN_GEOMETRIC_PRESENTATION_REPRESENTATION('',(#445),
#763);
#763=(
GEOMETRIC_REPRESENTATION_CONTEXT(3)
GLOBAL_UNCERTAINTY_ASSIGNED_CONTEXT((#764))
GLOBAL_UNIT_ASSIGNED_CONTEXT((#767,#766,#765))
REPRESENTATION_CONTEXT('Part 88','TOP_LEVEL_ASSEMBLY_PART')
);
#764=UNCERTAINTY_MEASURE_WITH_UNIT(LENGTH_MEASURE(1.E-8),#767,
'DISTANCE_ACCURACY_VALUE','Maximum Tolerance applied to model');
#765=(
NAMED_UNIT(*)
SI_UNIT($,.STERADIAN.)
SOLID_ANGLE_UNIT()
);
#766=(
NAMED_UNIT(*)
PLANE_ANGLE_UNIT()
SI_UNIT($,.RADIAN.)
);
#767=(
LENGTH_UNIT()
NAMED_UNIT(*)
SI_UNIT($,.METRE.)
);
#768=PRODUCT_DEFINITION_SHAPE('','',#769);
#769=PRODUCT_DEFINITION('','',#771,#770);
#770=PRODUCT_DEFINITION_CONTEXT('',#777,'design');
#771=PRODUCT_DEFINITION_FORMATION_WITH_SPECIFIED_SOURCE('','',#773,
 .NOT_KNOWN.);
#772=PRODUCT_RELATED_PRODUCT_CATEGORY('','',(#773));
#773=PRODUCT('Part 88','Part 88','Part 88',(#775));
#774=PRODUCT_CATEGORY('','');
#775=PRODUCT_CONTEXT('',#777,'mechanical');
#776=APPLICATION_PROTOCOL_DEFINITION('international standard',
'ap242_managed_model_based_3d_engineering',2020,#777);
#777=APPLICATION_CONTEXT('managed model based 3d engineering');
ENDSEC;
END-ISO-10303-21;
